HIERARCHY
ROOT mixamorig:Hips
{
	OFFSET 0.000000 104.274902 0.000000
	CHANNELS 6 Xposition Yposition Zposition Xrotation Yrotation Zrotation
	JOINT mixamorig:Spine
	{
		OFFSET 0.000000 10.181549 0.131524
		CHANNELS 6 Xposition Yposition Zposition Xrotation Yrotation Zrotation
		JOINT mixamorig:Spine1
		{
			OFFSET 0.000000 9.893990 -1.470706
			CHANNELS 3 Xrotation Yrotation Zrotation
			JOINT mixamorig:Spine2
			{
				OFFSET 0.000000 9.220787 -1.370637
				CHANNELS 3 Xrotation Yrotation Zrotation
				JOINT mixamorig:Neck
				{
					OFFSET 0.000000 16.740372 -2.049022
					CHANNELS 6 Xposition Yposition Zposition Xrotation Yrotation Zrotation
					JOINT mixamorig:Head
					{
						OFFSET 0.000000 9.617859 1.684976
						CHANNELS 6 Xposition Yposition Zposition Xrotation Yrotation Zrotation
						JOINT mixamorig:HeadTop_End
						{
							OFFSET 0.000000 22.037384 7.501072
							CHANNELS 6 Xposition Yposition Zposition Xrotation Yrotation Zrotation
							End Site
							{
								OFFSET 0.000000 23.106567 -2.828246
							}
						}
					}
				}
				JOINT mixamorig:RightShoulder
				{
					OFFSET -4.570000 11.014877 -2.160840
					CHANNELS 6 Xposition Yposition Zposition Xrotation Yrotation Zrotation
					JOINT mixamorig:RightArm
					{
						OFFSET -10.592867 -0.524796 -2.232105
						CHANNELS 3 Xrotation Yrotation Zrotation
						JOINT mixamorig:RightForeArm
						{
							OFFSET -27.841497 0.000000 -0.000002
							CHANNELS 3 Xrotation Yrotation Zrotation
							JOINT mixamorig:RightHand
							{
								OFFSET -28.328812 0.000000 -0.000001
								CHANNELS 3 Xrotation Yrotation Zrotation
								JOINT mixamorig:RightHandThumb1
								{
									OFFSET -2.464798 -1.573990 2.681911
									CHANNELS 6 Xposition Yposition Zposition Xrotation Yrotation Zrotation
									JOINT mixamorig:RightHandThumb2
									{
										OFFSET -3.244781 -1.873383 1.873376
										CHANNELS 3 Xrotation Yrotation Zrotation
										JOINT mixamorig:RightHandThumb3
										{
											OFFSET -2.646263 -1.527817 1.527818
											CHANNELS 6 Xposition Yposition Zposition Xrotation Yrotation Zrotation
											JOINT mixamorig:RightHandThumb4
											{
												OFFSET -1.994591 -1.151581 1.151575
												CHANNELS 6 Xposition Yposition Zposition Xrotation Yrotation Zrotation
												End Site
												{
													OFFSET -1.860176 -1.142715 1.365483
												}
											}
										}
									}
								}
								JOINT mixamorig:RightHandIndex1
								{
									OFFSET -9.108299 -0.517883 2.259803
									CHANNELS 6 Xposition Yposition Zposition Xrotation Yrotation Zrotation
									JOINT mixamorig:RightHandIndex2
									{
										OFFSET -3.699997 0.000000 0.000000
										CHANNELS 3 Xrotation Yrotation Zrotation
										JOINT mixamorig:RightHandIndex3
										{
											OFFSET -2.850006 0.000000 0.000000
											CHANNELS 3 Xrotation Yrotation Zrotation
											JOINT mixamorig:RightHandIndex4
											{
												OFFSET -2.772194 0.000000 0.000000
												CHANNELS 3 Xrotation Yrotation Zrotation
												End Site
												{
													OFFSET -2.772202 0.000000 -0.000484
												}
											}
										}
									}
								}
								JOINT mixamorig:RightHandMiddle1
								{
									OFFSET -9.532501 0.000000 -0.000000
									CHANNELS 6 Xposition Yposition Zposition Xrotation Yrotation Zrotation
									JOINT mixamorig:RightHandMiddle2
									{
										OFFSET -3.699997 0.000000 0.000000
										CHANNELS 3 Xrotation Yrotation Zrotation
										JOINT mixamorig:RightHandMiddle3
										{
											OFFSET -2.949997 0.000000 0.000000
											CHANNELS 3 Xrotation Yrotation Zrotation
											JOINT mixamorig:RightHandMiddle4
											{
												OFFSET -2.946594 0.000000 0.000000
												CHANNELS 3 Xrotation Yrotation Zrotation
												End Site
												{
													OFFSET -2.946602 0.000000 -0.000982
												}
											}
										}
									}
								}
								JOINT mixamorig:RightHandRing1
								{
									OFFSET -9.103600 -0.043106 -1.865100
									CHANNELS 6 Xposition Yposition Zposition Xrotation Yrotation Zrotation
									JOINT mixamorig:RightHandRing2
									{
										OFFSET -3.379303 0.000000 0.000000
										CHANNELS 3 Xrotation Yrotation Zrotation
										JOINT mixamorig:RightHandRing3
										{
											OFFSET -2.889694 0.000000 0.000000
											CHANNELS 3 Xrotation Yrotation Zrotation
											JOINT mixamorig:RightHandRing4
											{
												OFFSET -2.638802 0.000000 0.000000
												CHANNELS 3 Xrotation Yrotation Zrotation
												End Site
												{
													OFFSET -2.638802 0.000000 0.004218
												}
											}
										}
									}
								}
								JOINT mixamorig:RightHandPinky1
								{
									OFFSET -8.076698 -0.486725 -3.806299
									CHANNELS 6 Xposition Yposition Zposition Xrotation Yrotation Zrotation
									JOINT mixamorig:RightHandPinky2
									{
										OFFSET -3.600006 0.000000 0.000000
										CHANNELS 3 Xrotation Yrotation Zrotation
										JOINT mixamorig:RightHandPinky3
										{
											OFFSET -2.099998 0.000000 0.000000
											CHANNELS 3 Xrotation Yrotation Zrotation
											JOINT mixamorig:RightHandPinky4
											{
												OFFSET -2.115791 0.000000 0.000000
												CHANNELS 3 Xrotation Yrotation Zrotation
												End Site
												{
													OFFSET -2.115799 0.000000 0.000174
												}
											}
										}
									}
								}
							}
						}
					}
				}
				JOINT mixamorig:LeftShoulder
				{
					OFFSET 4.570400 11.014679 -2.160816
					CHANNELS 6 Xposition Yposition Zposition Xrotation Yrotation Zrotation
					JOINT mixamorig:LeftArm
					{
						OFFSET 10.592373 -0.524597 -2.232116
						CHANNELS 3 Xrotation Yrotation Zrotation
						JOINT mixamorig:LeftForeArm
						{
							OFFSET 27.841488 0.000000 0.000001
							CHANNELS 3 Xrotation Yrotation Zrotation
							JOINT mixamorig:LeftHand
							{
								OFFSET 28.328808 0.000000 -0.000000
								CHANNELS 3 Xrotation Yrotation Zrotation
								JOINT mixamorig:LeftHandThumb1
								{
									OFFSET 2.466103 -1.576202 2.681698
									CHANNELS 6 Xposition Yposition Zposition Xrotation Yrotation Zrotation
									JOINT mixamorig:LeftHandThumb2
									{
										OFFSET 3.243317 -1.872528 1.872530
										CHANNELS 3 Xrotation Yrotation Zrotation
										JOINT mixamorig:LeftHandThumb3
										{
											OFFSET 2.647881 -1.528763 1.528754
											CHANNELS 6 Xposition Yposition Zposition Xrotation Yrotation Zrotation
											JOINT mixamorig:LeftHandThumb4
											{
												OFFSET 1.998924 -1.154083 1.154080
												CHANNELS 6 Xposition Yposition Zposition Xrotation Yrotation Zrotation
												End Site
												{
													OFFSET 1.884041 -1.149155 1.337651
												}
											}
										}
									}
								}
								JOINT mixamorig:LeftHandIndex1
								{
									OFFSET 9.109299 -0.518005 2.259900
									CHANNELS 6 Xposition Yposition Zposition Xrotation Yrotation Zrotation
									JOINT mixamorig:LeftHandIndex2
									{
										OFFSET 3.699997 0.000000 0.000000
										CHANNELS 3 Xrotation Yrotation Zrotation
										JOINT mixamorig:LeftHandIndex3
										{
											OFFSET 2.850006 0.000000 0.000000
											CHANNELS 3 Xrotation Yrotation Zrotation
											JOINT mixamorig:LeftHandIndex4
											{
												OFFSET 2.774895 0.000000 0.000000
												CHANNELS 3 Xrotation Yrotation Zrotation
												End Site
												{
													OFFSET 2.774902 0.000000 -0.000072
												}
											}
										}
									}
								}
								JOINT mixamorig:LeftHandMiddle1
								{
									OFFSET 9.533401 0.000000 0.000000
									CHANNELS 6 Xposition Yposition Zposition Xrotation Yrotation Zrotation
									JOINT mixamorig:LeftHandMiddle2
									{
										OFFSET 3.699997 0.000000 0.000000
										CHANNELS 3 Xrotation Yrotation Zrotation
										JOINT mixamorig:LeftHandMiddle3
										{
											OFFSET 2.949997 0.000000 0.000000
											CHANNELS 3 Xrotation Yrotation Zrotation
											JOINT mixamorig:LeftHandMiddle4
											{
												OFFSET 2.952896 0.000000 0.000000
												CHANNELS 3 Xrotation Yrotation Zrotation
												End Site
												{
													OFFSET 2.952904 0.000000 0.000165
												}
											}
										}
									}
								}
								JOINT mixamorig:LeftHandRing1
								{
									OFFSET 9.104500 -0.042999 -1.865101
									CHANNELS 6 Xposition Yposition Zposition Xrotation Yrotation Zrotation
									JOINT mixamorig:LeftHandRing2
									{
										OFFSET 3.149994 0.000000 0.000000
										CHANNELS 3 Xrotation Yrotation Zrotation
										JOINT mixamorig:LeftHandRing3
										{
											OFFSET 2.950005 0.000000 0.000000
											CHANNELS 3 Xrotation Yrotation Zrotation
											JOINT mixamorig:LeftHandRing4
											{
												OFFSET 2.644302 0.000000 0.000000
												CHANNELS 3 Xrotation Yrotation Zrotation
												End Site
												{
													OFFSET 2.644302 0.000000 0.000083
												}
											}
										}
									}
								}
								JOINT mixamorig:LeftHandPinky1
								{
									OFFSET 8.077805 -0.486893 -3.806302
									CHANNELS 6 Xposition Yposition Zposition Xrotation Yrotation Zrotation
									JOINT mixamorig:LeftHandPinky2
									{
										OFFSET 3.600006 0.000000 0.000000
										CHANNELS 3 Xrotation Yrotation Zrotation
										JOINT mixamorig:LeftHandPinky3
										{
											OFFSET 2.099998 0.000000 0.000000
											CHANNELS 3 Xrotation Yrotation Zrotation
											JOINT mixamorig:LeftHandPinky4
											{
												OFFSET 2.125496 0.000000 0.000000
												CHANNELS 3 Xrotation Yrotation Zrotation
												End Site
												{
													OFFSET 2.125504 0.000000 -0.001254
												}
											}
										}
									}
								}
							}
						}
					}
				}
			}
		}
	}
	JOINT mixamorig:RightUpLeg
	{
		OFFSET -8.207800 -6.751701 -1.599544
		CHANNELS 6 Xposition Yposition Zposition Xrotation Yrotation Zrotation
		JOINT mixamorig:RightLeg
		{
			OFFSET 0.000004 -44.370152 0.345934
			CHANNELS 3 Xrotation Yrotation Zrotation
			JOINT mixamorig:RightFoot
			{
				OFFSET 0.000004 -44.423664 -3.043535
				CHANNELS 3 Xrotation Yrotation Zrotation
				JOINT mixamorig:RightToeBase
				{
					OFFSET 0.000001 -8.728691 10.710592
					CHANNELS 3 Xrotation Yrotation Zrotation
					JOINT mixamorig:RightToe_End
					{
						OFFSET 0.000000 -0.000665 9.278101
						CHANNELS 3 Xrotation Yrotation Zrotation
						End Site
						{
							OFFSET 0.000000 -0.000665 9.278103
						}
					}
				}
			}
		}
	}
	JOINT mixamorig:LeftUpLeg
	{
		OFFSET 8.207800 -6.751701 -1.599544
		CHANNELS 6 Xposition Yposition Zposition Xrotation Yrotation Zrotation
		JOINT mixamorig:LeftLeg
		{
			OFFSET 0.000004 -44.370037 0.346940
			CHANNELS 3 Xrotation Yrotation Zrotation
			JOINT mixamorig:LeftFoot
			{
				OFFSET 0.000004 -44.423611 -3.044388
				CHANNELS 3 Xrotation Yrotation Zrotation
				JOINT mixamorig:LeftToeBase
				{
					OFFSET 0.000001 -8.728690 10.710592
					CHANNELS 3 Xrotation Yrotation Zrotation
					JOINT mixamorig:LeftToe_End
					{
						OFFSET 0.000000 -0.000680 9.278101
						CHANNELS 3 Xrotation Yrotation Zrotation
						End Site
						{
							OFFSET 0.000000 -0.000680 9.278101
						}
					}
				}
			}
		}
	}
}
MOTION
Frames: 4
Frame Time: 0.033333
3.809142 90.125107 34.126526 2.595946 -57.428203 4.605629 -0.000000 10.181555 0.131522 6.092455 1.256602 -1.259172 9.632720 2.647326 -3.369550 9.610486 2.813905 -3.319074 0.000004 16.740372 -2.049016 8.317086 4.059268 -7.537989 -0.000004 9.617851 1.684979 10.371884 17.251574 -16.961851 0.000006 22.037338 7.501079 0.000001 0.000001 -0.000002 -4.569997 11.014866 -2.160835 4.082491 16.333421 -5.278553 -26.725267 37.450122 70.486118 0.000126 126.482918 -0.000050 3.197088 5.351316 -13.899213 -2.464791 -1.574000 2.681909 -0.815708 -16.226016 6.504791 17.424101 -21.200409 1.267176 -2.646256 -1.527825 1.527827 18.064179 -57.087616 -8.376628 -1.994589 -1.151582 1.151580 0.000002 -0.000000 -0.000004 -9.108311 -0.517879 2.259806 5.628755 -6.822398 79.026791 7.017415 -6.947884 90.571963 3.897149 -6.245449 63.897034 -0.000000 0.000005 0.000001 -9.532516 0.000006 -0.000003 5.628754 -6.822398 79.026791 7.017411 -6.947881 90.571963 3.897149 -6.245448 63.897028 0.000002 0.000002 -0.000001 -9.103605 -0.043099 -1.865098 5.628755 -6.822402 79.026778 7.017412 -6.947886 90.571963 3.897148 -6.245447 63.897028 0.000000 -0.000004 0.000001 -8.076701 -0.486723 -3.806302 5.628754 -6.822401 79.026791 7.017429 -6.947900 90.571969 3.897163 -6.245449 63.897041 0.000001 -0.000003 0.000003 4.570406 11.014688 -2.160810 -2.137233 13.787225 -7.556893 -19.914912 -18.124435 -51.551905 0.000025 -107.911907 0.000014 10.161210 3.151573 8.948339 2.466105 -1.576204 2.681702 9.056475 10.602072 -5.965588 9.417656 22.103559 3.251287 2.647886 -1.528738 1.528737 2.732887 51.440071 6.459209 1.998917 -1.154097 1.154076 0.000001 -0.000003 0.000003 9.109311 -0.518005 2.259902 5.468817 6.735530 -78.128048 8.288579 6.736599 -101.829262 5.506354 6.743271 -78.448042 -0.000001 0.000000 0.000000 9.533415 0.000008 0.000002 5.466906 6.735129 -78.111847 8.290490 6.736211 -101.845456 5.506340 6.743264 -78.448049 -0.000004 -0.000001 -0.000002 9.104495 -0.042998 -1.865098 5.468816 6.735530 -78.128048 8.288576 6.736610 -101.829248 5.506366 6.743271 -78.448042 -0.000003 -0.000001 -0.000000 8.077825 -0.486892 -3.806303 7.578360 7.180632 -77.998855 8.273358 2.652894 -101.675576 5.501541 6.742273 -78.406979 0.000001 -0.000000 -0.000001 -8.207806 -6.751702 -1.599544 -13.344982 -13.428423 -31.185978 33.144866 -0.161904 -8.200346 -9.680166 -4.817488 28.905511 -6.907648 -0.040988 2.011309 0.000000 -0.000000 0.000000 8.207806 -6.751698 -1.599543 -33.282050 6.112717 27.967430 24.149857 -8.900491 9.684778 15.026614 -15.754806 -22.404783 -3.643777 0.052313 -2.271256 -0.000001 -0.000002 0.000001 
3.677126 91.599083 31.065390 2.568438 -54.819928 4.868271 -0.000003 10.181561 0.131521 6.023152 1.220435 -0.985969 9.456488 2.479217 -2.951253 9.434639 2.635202 -2.903977 -0.000002 16.740370 -2.049020 8.483073 3.854992 -7.499060 -0.000003 9.617843 1.684973 11.212515 16.106066 -17.096177 0.000000 22.037369 7.501068 0.000001 -0.000001 0.000001 -4.569999 11.014871 -2.160842 4.122349 16.184948 -5.957213 -25.132306 36.656126 67.631365 0.000152 126.969952 -0.000101 2.852670 5.442164 -13.717627 -2.464796 -1.574001 2.681907 -0.815707 -16.226018 6.504784 17.424103 -21.200405 1.267178 -2.646264 -1.527797 1.527807 18.064184 -57.087616 -8.376630 -1.994605 -1.151585 1.151573 -0.000001 -0.000003 -0.000000 -9.108327 -0.517881 2.259796 5.628753 -6.822396 79.026791 7.017413 -6.947884 90.571963 3.897145 -6.245450 63.897028 -0.000000 0.000000 -0.000000 -9.532519 0.000010 -0.000002 5.628753 -6.822396 79.026791 7.017413 -6.947885 90.571963 3.897148 -6.245450 63.897028 -0.000003 -0.000003 0.000001 -9.103592 -0.043095 -1.865098 5.628754 -6.822398 79.026778 7.017412 -6.947886 90.571963 3.897148 -6.245455 63.897028 0.000003 -0.000000 0.000003 -8.076717 -0.486725 -3.806295 5.628754 -6.822398 79.026791 7.017424 -6.947903 90.571969 3.897164 -6.245443 63.897048 0.000002 0.000000 0.000001 4.570402 11.014687 -2.160817 -2.015326 13.451198 -8.027973 -21.726753 -19.824575 -55.143607 0.000007 -110.591698 0.000001 11.151993 2.419452 10.063553 2.466098 -1.576199 2.681701 9.056473 10.602074 -5.965588 9.417656 22.103558 3.251279 2.647864 -1.528768 1.528754 2.732887 51.440067 6.459214 1.998932 -1.154092 1.154080 0.000002 -0.000003 0.000003 9.109302 -0.518026 2.259902 5.468816 6.735536 -78.128041 8.288578 6.736599 -101.829262 5.506357 6.743267 -78.448042 0.000001 -0.000001 -0.000001 9.533400 -0.000009 -0.000001 5.466906 6.735130 -78.111847 8.290487 6.736212 -101.845463 5.506341 6.743265 -78.448049 0.000001 -0.000005 0.000001 9.104500 -0.043013 -1.865108 5.468819 6.735534 -78.128041 8.288572 6.736607 -101.829248 5.506366 6.743275 -78.448042 -0.000003 0.000001 0.000002 8.077808 -0.486900 -3.806294 7.578360 7.180638 -77.998855 8.273355 2.652896 -101.675583 5.501539 6.742270 -78.406979 -0.000001 -0.000003 0.000001 -8.207808 -6.751711 -1.599542 -12.563260 -13.681802 -29.592392 32.959655 -2.857260 -7.104972 -8.977509 -4.466536 28.991400 -7.103296 -0.085943 2.919380 0.000000 0.000000 -0.000000 8.207799 -6.751701 -1.599542 -34.782168 6.029075 25.077205 28.793844 -9.056764 9.685654 9.811939 -13.053433 -24.440133 -1.326567 -0.000014 0.000011 -0.000000 0.000002 -0.000000 
3.790593 92.765129 28.539408 2.024006 -53.526717 4.378684 -0.000001 10.181541 0.131527 6.278916 1.190485 -0.832667 9.640786 2.332428 -2.697223 9.625465 2.466923 -2.644363 -0.000001 16.740370 -2.049020 8.346359 3.750081 -7.221539 -0.000002 9.617856 1.684974 11.939441 15.672738 -17.602492 0.000001 22.037354 7.501082 -0.000003 -0.000000 0.000000 -4.570002 11.014851 -2.160837 4.065761 15.825062 -6.251913 -24.701915 36.038865 65.488147 0.000110 126.797995 -0.000051 2.455335 5.541674 -13.186017 -2.464792 -1.574001 2.681921 -0.815706 -16.226014 6.504787 17.424098 -21.200407 1.267176 -2.646263 -1.527799 1.527814 18.064180 -57.087612 -8.376624 -1.994606 -1.151591 1.151565 -0.000000 -0.000006 0.000003 -9.108312 -0.517877 2.259813 5.628754 -6.822395 79.026791 7.017413 -6.947885 90.571963 3.897147 -6.245451 63.897028 -0.000000 -0.000000 0.000000 -9.532520 0.000006 0.000009 5.628753 -6.822395 79.026791 7.017417 -6.947883 90.571963 3.897148 -6.245448 63.897028 -0.000001 -0.000001 -0.000001 -9.103605 -0.043099 -1.865091 5.628754 -6.822397 79.026785 7.017413 -6.947884 90.571963 3.897144 -6.245450 63.897028 -0.000004 -0.000001 0.000003 -8.076703 -0.486715 -3.806283 5.628754 -6.822401 79.026791 7.017423 -6.947902 90.571969 3.897163 -6.245442 63.897048 -0.000003 0.000000 -0.000000 4.570403 11.014688 -2.160819 -1.934377 12.993418 -7.709190 -23.540368 -21.306811 -59.192004 0.000006 -112.551170 0.000005 13.072084 1.999711 11.072450 2.466095 -1.576173 2.681698 9.056471 10.602079 -5.965587 9.417660 22.103561 3.251281 2.647887 -1.528738 1.528748 2.732887 51.440074 6.459210 1.998924 -1.154104 1.154081 -0.000003 0.000004 0.000003 9.109282 -0.517982 2.259900 5.468815 6.735538 -78.128041 8.288579 6.736599 -101.829255 5.506360 6.743265 -78.448042 -0.000000 0.000001 0.000001 9.533416 0.000020 0.000002 5.466906 6.735132 -78.111847 8.290486 6.736209 -101.845456 5.506344 6.743260 -78.448042 0.000001 -0.000003 -0.000001 9.104498 -0.042991 -1.865098 5.468814 6.735537 -78.128048 8.288575 6.736604 -101.829241 5.506368 6.743275 -78.448042 0.000001 0.000001 0.000006 8.077814 -0.486891 -3.806311 7.578356 7.180639 -77.998848 8.273357 2.652895 -101.675576 5.501540 6.742274 -78.406972 -0.000001 -0.000000 -0.000004 -8.207811 -6.751707 -1.599542 -12.716994 -13.274195 -28.043594 34.000470 -4.640309 -6.669266 -7.676684 -3.996022 29.233667 -8.100414 -0.111583 2.378755 -0.000000 0.000000 0.000000 8.207800 -6.751716 -1.599542 -35.867755 5.478403 22.628610 37.719877 -9.112594 9.176686 1.917083 -11.591884 -29.480398 -1.084717 -0.000014 0.000003 0.000000 0.000002 -0.000000 
4.016720 93.695450 26.405748 1.474721 -53.443508 3.542737 0.000001 10.181548 0.131525 6.620331 1.159758 -0.728452 9.938815 2.248215 -2.476114 9.929156 2.362579 -2.415704 -0.000001 16.740353 -2.049023 8.116431 3.732478 -6.826531 0.000000 9.617844 1.684967 12.389272 15.889127 -18.200426 -0.000002 22.037384 7.501078 0.000003 -0.000001 -0.000001 -4.570001 11.014887 -2.160844 3.993299 15.644022 -5.963841 -25.036255 35.656552 64.261323 0.000137 126.291632 -0.000073 2.189503 5.594463 -12.605349 -2.464803 -1.574006 2.681907 -0.815706 -16.226019 6.504787 17.424098 -21.200410 1.267180 -2.646266 -1.527804 1.527838 18.064187 -57.087612 -8.376629 -1.994601 -1.151600 1.151567 0.000001 -0.000002 -0.000002 -9.108325 -0.517881 2.259795 5.628755 -6.822401 79.026791 7.017412 -6.947886 90.571963 3.897145 -6.245451 63.897028 -0.000003 0.000001 -0.000001 -9.532517 0.000010 -0.000009 5.628756 -6.822402 79.026791 7.017412 -6.947883 90.571963 3.897146 -6.245454 63.897028 0.000004 -0.000001 0.000001 -9.103622 -0.043098 -1.865109 5.628756 -6.822398 79.026778 7.017411 -6.947887 90.571963 3.897145 -6.245448 63.897028 0.000003 -0.000001 0.000001 -8.076714 -0.486727 -3.806300 5.628755 -6.822403 79.026791 7.017423 -6.947903 90.571969 3.897163 -6.245447 63.897048 0.000001 -0.000002 -0.000000 4.570397 11.014681 -2.160818 -1.942556 12.776660 -6.964090 -24.744119 -22.877007 -62.692394 0.000011 -113.311916 0.000005 14.890818 1.911494 11.757613 2.466086 -1.576189 2.681704 9.056476 10.602076 -5.965583 9.417654 22.103558 3.251281 2.647892 -1.528743 1.528744 2.732894 51.440067 6.459206 1.998920 -1.154095 1.154069 0.000001 0.000001 0.000005 9.109285 -0.517999 2.259904 5.468816 6.735542 -78.128041 8.288577 6.736600 -101.829255 5.506353 6.743270 -78.448035 0.000001 -0.000001 0.000000 9.533402 0.000014 0.000001 5.466903 6.735137 -78.111847 8.290488 6.736209 -101.845456 5.506345 6.743259 -78.448042 -0.000002 -0.000001 -0.000002 9.104486 -0.043000 -1.865098 5.468815 6.735537 -78.128041 8.288579 6.736609 -101.829248 5.506370 6.743274 -78.448035 0.000002 0.000001 0.000001 8.077808 -0.486883 -3.806296 7.578358 7.180641 -77.998855 8.273354 2.652896 -101.675576 5.501540 6.742273 -78.406972 -0.000001 -0.000000 -0.000001 -8.207805 -6.751719 -1.599542 -14.127964 -12.356651 -26.856577 36.575608 -4.625958 -6.506676 -5.859842 -3.499013 29.533837 -8.810106 -0.059365 1.144814 0.000001 0.000000 0.000000 8.207803 -6.751709 -1.599545 -35.680959 5.301018 21.032027 46.214187 -9.022436 7.286150 -4.091550 -11.185505 -29.945878 -0.028479 0.000011 0.000001 0.000000 0.000000 0.000002 
